# xmcd
#
# Track frame offsets: 
#        150
#        13656
#        29730
#        45039
#        62337
#        80851
#        104506
#        118369
#        134595
#        155800
#
# Disc length: 2590 seconds
#
# Revision: 1
# Processed by: cddbd v1.5.2PL0 Copyright (c) Steve Scherf et al.
# Submitted via: ExactAudioCopy v0.99pb4
#
DISCID=8b0a1c0a
DTITLE=Black Box Revelation - Set Your Head On Fire
DYEAR=2009
DGENRE=
TTITLE0=Love, Love Is On My Mind
TTITLE1=I Think I Like You
TTITLE2=Gravity Blues
TTITLE3=Love In Your Head
TTITLE4=Stand Your Ground
TTITLE5=Never Alone, Always Together
TTITLE6=Cold, Cold Hands
TTITLE7=We Never Wondered Why
TTITLE8=Set Your Head On Fire
TTITLE9=I Don't Want It
EXTD=
EXTT0=
EXTT1=
EXTT2=
EXTT3=
EXTT4=
EXTT5=
EXTT6=
EXTT7=
EXTT8=
EXTT9=
PLAYORDER=
